<?xml version="1.0" encoding="UTF-8" standalone="no"?>
<!-- Created with Inkscape (http://www.inkscape.org/) -->

<svg
   width="600"
   height="1600"
   viewBox="0 0 127.0001 338.66667"
   version="1.1"
   id="svg844"
   inkscape:version="1.1.2 (b8e25be833, 2022-02-05)"
   sodipodi:docname="murobasegif.svg"
   xmlns:inkscape="http://www.inkscape.org/namespaces/inkscape"
   xmlns:sodipodi="http://sodipodi.sourceforge.net/DTD/sodipodi-0.dtd"
   xmlns="http://www.w3.org/2000/svg"
   xmlns:svg="http://www.w3.org/2000/svg">
  <sodipodi:namedview
     id="namedview846"
     pagecolor="#ffffff"
     bordercolor="#666666"
     borderopacity="1.0"
     inkscape:pageshadow="2"
     inkscape:pageopacity="0.0"
     inkscape:pagecheckerboard="true"
     inkscape:document-units="px"
     showgrid="false"
     units="px"
     height="750px"
     inkscape:zoom="0.52347032"
     inkscape:cx="530.11602"
     inkscape:cy="1053.5459"
     inkscape:window-width="1362"
     inkscape:window-height="1040"
     inkscape:window-x="374"
     inkscape:window-y="136"
     inkscape:window-maximized="0"
     inkscape:current-layer="layer11" />
  <defs
     id="defs841" />
  <g
     inkscape:groupmode="layer"
     id="layer11"
     inkscape:label="Layer 1"
     style="display:inline">
    <path
       style="fill:#03031c;fill-opacity:1;stroke:none;stroke-width:0.513702px;stroke-linecap:butt;stroke-linejoin:miter;stroke-opacity:1"
       d="M 93.101464,265.97898 103.26077,247.76702 V 125.78131 l -6.656096,8.59055 -17.86636,2.40534 H 45.808161 l -10.159306,-10.65227 -0.700642,120.26761 10.859948,18.55558 z"
       id="path1280" />
  </g>
  <g
     inkscape:groupmode="layer"
     id="layer12"
     inkscape:label="Layer 2"
     style="display:inline">
    <path
       style="fill:#a82d39;fill-opacity:1;stroke:none;stroke-width:0.513702px;stroke-linecap:butt;stroke-linejoin:miter;stroke-opacity:1"
       d="m 35.648855,126.12493 10.159306,11.33951 33.630798,-0.68724 17.165715,-2.40534 6.656096,-8.59055 v -18.21196 l -5.342386,-5.41203 0.78822,12.97172 -8.75802,16.49385 -39.936576,-0.34362 -8.758018,-15.11937 0.08317,-13.86634 -5.775889,6.99392 z"
       id="path2125"
       sodipodi:nodetypes="cccccccccccccc" />
  </g>
  <g
     inkscape:groupmode="layer"
     id="layer13"
     inkscape:label="Layer 3"
     style="display:inline">
    <path
       style="fill:#03031c;fill-opacity:1;stroke:none;stroke-width:0.513702px;stroke-linecap:butt;stroke-linejoin:miter;stroke-opacity:1"
       d="M 41.25399,97.776129 V 116.1599 l 8.407701,15.46299 h 40.286893 l 8.75802,-16.49385 -0.87581,-17.009291 -8.582854,9.105981 H 50.012008 Z"
       id="path3568"
       sodipodi:nodetypes="ccccccccc" />
  </g>
  <g
     inkscape:groupmode="layer"
     id="layer14"
     inkscape:label="Layer 4"
     style="display:inline">
    <path
       style="fill:#630929;fill-opacity:1;stroke:none;stroke-width:0.513702px;stroke-linecap:butt;stroke-linejoin:miter;stroke-opacity:1"
       d="M 50.012008,107.22573 H 89.24794 l 0.700644,24.39716 H 49.661691 Z"
       id="path4322"
       sodipodi:nodetypes="ccccc" />
  </g>
  <g
     inkscape:groupmode="layer"
     id="layer15"
     inkscape:label="Layer 5"
     style="display:inline">
    <path
       style="fill:#04031d;fill-opacity:1;stroke:none;stroke-width:0.513702px;stroke-linecap:butt;stroke-linejoin:miter;stroke-opacity:1"
       d="m 62.448401,115.64447 6.305772,5.15434 8.933179,-4.4671 2.101927,3.09259 -9.808981,9.10598 -9.283504,-8.76234 z"
       id="path5508" />
  </g>
  <g
     inkscape:groupmode="layer"
     id="layer16"
     inkscape:label="Layer 6"
     style="display:inline">
    <path
       style="fill:#e4c265;fill-opacity:1;stroke:none;stroke-width:0.513702px;stroke-linecap:butt;stroke-linejoin:miter;stroke-opacity:1"
       d="m 62.448401,115.47266 6.831252,5.32615 8.057379,-4.63891 -2.452245,-4.12345 -10.859943,0.17186 z"
       id="path6507" />
  </g>
  <g
     inkscape:groupmode="layer"
     id="layer19"
     inkscape:label="Layer 7"
     style="display:inline">
    <path
       style="fill:#700b29;fill-opacity:1;stroke:none;stroke-width:0.513702px;stroke-linecap:butt;stroke-linejoin:miter;stroke-opacity:1"
       d="m 46.508804,166.32867 46.41751,0.17186 v -8.41873 l -8.232541,-1.5463 v -1.7181 l 8.407701,-2.92078 0.17516,-9.4496 -14.53832,-5.66982 -32.930153,0.68724 z"
       id="path10022"
       sodipodi:nodetypes="cccccccccc" />
  </g>
  <g
     inkscape:groupmode="layer"
     id="layer20"
     inkscape:label="Layer 8"
     style="display:inline">
    <path
       style="fill:#5b0829;fill-opacity:1;stroke:none;stroke-width:0.513702px;stroke-linecap:butt;stroke-linejoin:miter;stroke-opacity:1"
       d="m 45.808161,174.06017 14.187996,-0.17186 -2.277087,12.88581 -7.882222,4.81072 h -4.203852 z"
       id="path11497" />
  </g>
  <g
     inkscape:groupmode="layer"
     id="layer21"
     inkscape:label="Layer 9"
     style="display:inline">
    <path
       style="fill:#700b27;fill-opacity:1;stroke:none;stroke-width:0.513702px;stroke-linecap:butt;stroke-linejoin:miter;stroke-opacity:1"
       d="m 63.849684,170.79577 -2.101927,16.66564 -9.984142,6.35701 -1.751607,6.1852 42.563986,-0.17186 0.17516,-28.86423 z"
       id="path12266" />
  </g>
  <g
     inkscape:groupmode="layer"
     id="layer22"
     inkscape:label="Layer 10"
     style="display:inline">
    <path
       style="fill:#660a2b;fill-opacity:1;stroke:none;stroke-width:0.513702px;stroke-linecap:butt;stroke-linejoin:miter;stroke-opacity:1"
       d="m 45.983321,203.43983 47.468463,-0.17186 v 29.55152 H 46.158481 Z"
       id="path13794" />
  </g>
  <g
     inkscape:groupmode="layer"
     id="layer23"
     inkscape:label="Layer 11"
     style="display:inline">
    <path
       style="fill:#03031b;fill-opacity:1;stroke:none;stroke-width:0.513702px;stroke-linecap:butt;stroke-linejoin:miter;stroke-opacity:1"
       d="m 53.559008,210.56999 2.539824,1.15972 -0.350322,13.78781 -2.23329,1.71811 8.626649,0.12883 -2.058137,-1.76106 0.306532,-13.83076 2.014347,-1.24563 z"
       id="path15016"
       sodipodi:nodetypes="ccccccccc" />
  </g>
  <g
     inkscape:groupmode="layer"
     id="layer24"
     inkscape:label="Layer 12"
     style="display:inline">
    <path
       style="fill:#03031b;fill-opacity:1;stroke:none;stroke-width:0.513702px;stroke-linecap:butt;stroke-linejoin:miter;stroke-opacity:1"
       d="m 76.855342,210.31227 2.014345,1.80401 0.08758,4.93955 -0.83201,0.68724 H 67.177733 l -3.021517,-2.5342 -0.04379,7.04425 c 0,0 2.846357,-2.19058 2.977725,-2.36239 0.13137,-0.17186 10.947528,-0.25772 10.947528,-0.25772 l 1.094752,1.20268 -0.08758,4.29526 -2.101927,1.76105 7.619482,-0.0858 -1.620235,-1.71811 0.17516,-13.22943 1.488862,-1.37448 z"
       id="path16865" />
  </g>
  <g
     inkscape:groupmode="layer"
     id="layer25"
     inkscape:label="Layer 13"
     style="display:inline">
    <path
       style="fill:#5b0829;fill-opacity:1;stroke:none;stroke-width:0.513702px;stroke-linecap:butt;stroke-linejoin:miter;stroke-opacity:1"
       d="m 93.101464,265.97898 -0.17516,-29.55147 -47.118148,0.17186 v 28.34875 z"
       id="path16996"
       sodipodi:nodetypes="ccccc" />
  </g>
  <g
     inkscape:groupmode="layer"
     id="layer17"
     inkscape:label="superiorR"
     style="display:inline">
    <path
       style="fill:#aa2d3e;fill-opacity:1;stroke:none;stroke-width:0.513702px;stroke-linecap:butt;stroke-linejoin:miter;stroke-opacity:1"
       d="m 49.486531,73.035375 -8.582864,9.621404 0.350323,15.11935 8.758018,9.449601 H 89.24794 l 8.582854,-9.105981 V 81.625919 L 89.24794,72.863564 Z"
       id="path7474"
       sodipodi:nodetypes="ccccccccc" />
  </g>
  <g
     inkscape:groupmode="layer"
     id="layer18"
     inkscape:label="superiorN"
     style="display:inline">
    <path
       style="fill:#d47f4d;fill-opacity:1;stroke:none;stroke-width:0.513702px;stroke-linecap:butt;stroke-linejoin:miter;stroke-opacity:1"
       d="m 54.9165,78.189699 -6.130614,6.52881 0.17516,12.02676 5.780294,5.326151 29.426951,0.51543 5.955453,-6.528821 v -11.51133 l -6.656098,-6.357 z"
       id="path8239" />
  </g>
  <g
     inkscape:groupmode="layer"
     id="layer26"
     inkscape:label="Layer 14">
    <path
       style="fill:#e4c265;fill-opacity:1;stroke:none;stroke-width:0.513702px;stroke-linecap:butt;stroke-linejoin:miter;stroke-opacity:1"
       d="m 49.311366,91.419139 -0.08758,4.12346 5.867874,5.927481 29.251791,0.42953 5.955453,-5.841581 -0.0876,-2.66307 c 0,0 -2.627404,-1.46039 -2.714991,-2.23354 -0.08758,-0.77315 0.613065,-10.99589 0.613065,-10.99589 l -6.743677,-7.38787 -0.4379,3.86574 -8.144959,1.88992 -3.941109,-2.49126 0.26274,-8.24692 6.305774,-0.429524 -2.890145,-6.271096 -2.714984,-1.288581 -3.15289,2.748972 -2.014347,0.08591 -1.7516,-3.006693 -9.283503,6.95834 0.26274,9.363692 4.203852,0.17181 2.277084,3.69394 -0.963382,6.78652 c 0,0 -4.028692,0.51544 -4.554172,0.60134 -0.525477,0.0859 -5.517554,4.20937 -5.517554,4.20937 z"
       id="path18566" />
  </g>
</svg>
